<svg xmlns="http://www.w3.org/2000/svg" width="1242.309" height="260" viewBox="0 0 1242.309 260"><path fill="#fff" d="M0 0h1242.309v260H0z"/><path fill="none" stroke="rgba(0, 0, 0, 0.55)" stroke-linecap="round" stroke-width="2" d="m152.022 68.727 45.956 122.546"/><path fill="none" stroke="rgba(0, 0, 0, 0.55)" stroke-dasharray="6 6" stroke-linecap="round" stroke-width="2" d="m272.022 68.727 45.956 122.546"/><path fill="none" stroke="rgba(0, 0, 0, 0.55)" stroke-linecap="round" stroke-width="2" d="m392.022 68.727 45.956 122.546"/><path fill="rgba(0, 0, 0, 0.55)" d="m437.978 191.273-8.896-9.48 9.364-3.511z"/><path fill="none" stroke="rgba(0, 0, 0, 0.55)" stroke-dasharray="6 6" stroke-linecap="round" stroke-width="2" d="m512.022 68.727 45.956 122.546"/><path fill="rgba(0, 0, 0, 0.55)" d="m557.978 191.273-8.896-9.48 9.364-3.511z"/><path fill="none" stroke="rgba(0, 0, 0, 0.55)" stroke-linecap="round" stroke-width="2" d="m632.022 68.727 45.956 122.546"/><path fill="rgba(0, 0, 0, 0.55)" d="m632.022 68.727 8.896 9.48-9.364 3.511z"/><path fill="none" stroke="rgba(0, 0, 0, 0.55)" stroke-dasharray="6 6" stroke-linecap="round" stroke-width="2" d="m752.022 68.727 45.956 122.546"/><path fill="rgba(0, 0, 0, 0.55)" d="m752.022 68.727 8.896 9.48-9.364 3.511z"/><path fill="none" stroke="rgba(0, 0, 0, 0.55)" stroke-linecap="round" stroke-width="2" d="m872.022 68.727 45.956 122.546"/><path fill="rgba(0, 0, 0, 0.55)" d="m917.978 191.273-8.896-9.48 9.364-3.511zM872.022 68.727l8.896 9.48-9.364 3.511z"/><g stroke="#000" stroke-width="2"><path d="M25 50h1130"/><path fill="none" stroke-linecap="square" d="M1145 44.226 1155 50l-10 5.774"/></g><path stroke="#000" stroke-width="2" d="M1104 25v50"/><g transform="translate(965 25)"><circle cx="20" cy="25" r="19" fill="hsl(102, 60%, 80%)" stroke="#000" stroke-width="2"/><text dominant-baseline="middle" font-family="Arial, Helvetica, sans-serif" font-size="18" text-anchor="middle" transform="translate(20 25)">h</text></g><g transform="translate(845 25)"><circle cx="20" cy="25" r="19" fill="hsl(32, 60%, 80%)" stroke="#000" stroke-width="2"/><text dominant-baseline="middle" font-family="Arial, Helvetica, sans-serif" font-size="18" text-anchor="middle" transform="translate(20 25)">g</text></g><g transform="translate(725 25)"><circle cx="20" cy="25" r="19" fill="hsl(35, 60%, 80%)" stroke="#000" stroke-width="2"/><text dominant-baseline="middle" font-family="Arial, Helvetica, sans-serif" font-size="18" text-anchor="middle" transform="translate(20 25)">f</text></g><g transform="translate(605 25)"><circle cx="20" cy="25" r="19" fill="hsl(253, 60%, 80%)" stroke="#000" stroke-width="2"/><text dominant-baseline="middle" font-family="Arial, Helvetica, sans-serif" font-size="18" text-anchor="middle" transform="translate(20 25)">e</text></g><g transform="translate(485 25)"><circle cx="20" cy="25" r="19" fill="hsl(79, 60%, 80%)" stroke="#000" stroke-width="2"/><text dominant-baseline="middle" font-family="Arial, Helvetica, sans-serif" font-size="18" text-anchor="middle" transform="translate(20 25)">d</text></g><g transform="translate(365 25)"><circle cx="20" cy="25" r="19" fill="hsl(32, 60%, 80%)" stroke="#000" stroke-width="2"/><text dominant-baseline="middle" font-family="Arial, Helvetica, sans-serif" font-size="18" text-anchor="middle" transform="translate(20 25)">c</text></g><g transform="translate(245 25)"><circle cx="20" cy="25" r="19" fill="hsl(44, 60%, 80%)" stroke="#000" stroke-width="2"/><text dominant-baseline="middle" font-family="Arial, Helvetica, sans-serif" font-size="18" text-anchor="middle" transform="translate(20 25)">b</text></g><g transform="translate(125 25)"><circle cx="20" cy="25" r="19" fill="hsl(321, 60%, 80%)" stroke="#000" stroke-width="2"/><text dominant-baseline="middle" font-family="Arial, Helvetica, sans-serif" font-size="18" text-anchor="middle" transform="translate(20 25)">a</text></g><g transform="translate(25 95)"><rect width="1190.309" height="48" x="1" y="11" fill="#fff" stroke="#000" stroke-width="2" rx="0"/><text x="596.155" y="35" dominant-baseline="middle" font-family="Arial, Helvetica, sans-serif" font-size="24" text-anchor="middle">Delay</text></g><g stroke="#000" stroke-width="2"><path d="M25 210h1190"/><path fill="none" stroke-linecap="square" d="m1205 204.226 10 5.774-10 5.774"/></g><path stroke="#000" stroke-width="2" d="M1164 185v50"/><g transform="translate(1025 185)"><circle cx="20" cy="25" r="19" fill="hsl(52, 60%, 80%)" stroke="#000" stroke-width="2"/><text dominant-baseline="middle" font-family="Arial, Helvetica, sans-serif" font-size="18" text-anchor="middle" transform="translate(20 25)">w</text></g><g transform="translate(905 185)"><circle cx="20" cy="25" r="19" fill="hsl(305, 60%, 80%)" stroke="#000" stroke-width="2"/><text dominant-baseline="middle" font-family="Arial, Helvetica, sans-serif" font-size="18" text-anchor="middle" transform="translate(20 25)">v</text></g><g transform="translate(785 185)"><circle cx="20" cy="25" r="19" fill="hsl(215, 60%, 80%)" stroke="#000" stroke-width="2"/><text dominant-baseline="middle" font-family="Arial, Helvetica, sans-serif" font-size="18" text-anchor="middle" transform="translate(20 25)">u</text></g><g transform="translate(665 185)"><circle cx="20" cy="25" r="19" fill="hsl(190, 60%, 80%)" stroke="#000" stroke-width="2"/><text dominant-baseline="middle" font-family="Arial, Helvetica, sans-serif" font-size="18" text-anchor="middle" transform="translate(20 25)">t</text></g><g transform="translate(545 185)"><circle cx="20" cy="25" r="19" fill="hsl(103, 60%, 80%)" stroke="#000" stroke-width="2"/><text dominant-baseline="middle" font-family="Arial, Helvetica, sans-serif" font-size="18" text-anchor="middle" transform="translate(20 25)">s</text></g><g transform="translate(425 185)"><circle cx="20" cy="25" r="19" fill="hsl(284, 60%, 80%)" stroke="#000" stroke-width="2"/><text dominant-baseline="middle" font-family="Arial, Helvetica, sans-serif" font-size="18" text-anchor="middle" transform="translate(20 25)">r</text></g><g transform="translate(305 185)"><circle cx="20" cy="25" r="19" fill="hsl(40, 60%, 80%)" stroke="#000" stroke-width="2"/><text dominant-baseline="middle" font-family="Arial, Helvetica, sans-serif" font-size="18" text-anchor="middle" transform="translate(20 25)">q</text></g><g transform="translate(185 185)"><circle cx="20" cy="25" r="19" fill="hsl(213, 60%, 80%)" stroke="#000" stroke-width="2"/><text dominant-baseline="middle" font-family="Arial, Helvetica, sans-serif" font-size="18" text-anchor="middle" transform="translate(20 25)">p</text></g><path fill="none" stroke="#777" stroke-dasharray="8 8" stroke-linecap="round" stroke-width="3" d="m992.022 68.727 45.956 122.546"/><path fill="#777" d="m1037.978 191.273-8.896-9.48 9.364-3.511zM992.022 68.727l8.896 9.48-9.364 3.511z"/></svg>